<?xml version="1.0" standalone="no"?>
<!DOCTYPE svg PUBLIC "-//W3C//DTD SVG 20010904//EN"
 "http://www.w3.org/TR/2001/REC-SVG-20010904/DTD/svg10.dtd">
<svg version="1.0" xmlns="http://www.w3.org/2000/svg"
 width="512.000000pt" height="512.000000pt" viewBox="0 0 512.000000 512.000000"
 preserveAspectRatio="xMidYMid meet">
<metadata>
Created by potrace 1.14, written by Peter Selinger 2001-2017
</metadata>
<g transform="translate(0.000000,512.000000) scale(0.100000,-0.100000)"
fill="#000000" stroke="none">
<path d="M2167 4729 c-144 -49 -248 -157 -287 -299 -8 -26 -14 -116 -15 -217
-1 -95 -5 -176 -9 -180 -4 -4 -18 -9 -33 -11 -42 -5 -100 -39 -127 -74 -71
-93 -62 -211 21 -290 33 -31 91 -58 128 -58 18 0 25 -5 25 -20 0 -27 -1 -21
19 -93 54 -186 172 -335 343 -431 l63 -35 -1 -73 c-1 -40 -2 -75 -3 -78 -1 -3
-121 -5 -268 -5 -148 0 -295 -3 -328 -7 -235 -32 -429 -213 -479 -449 l-6 -27
-116 0 c-64 0 -121 -5 -126 -10 -5 -5 -9 -356 -9 -865 l0 -857 -397 -2 -397
-3 0 -25 0 -25 2395 0 2395 0 0 25 0 25 -397 3 -397 2 0 857 c0 537 -3 859 -9
865 -6 6 -62 10 -126 10 l-116 0 -10 36 c-5 21 -10 41 -10 45 0 5 -16 43 -35
84 -50 104 -153 207 -255 256 -121 56 -154 61 -477 61 -253 1 -293 3 -294 16
-4 47 -4 127 -1 138 2 6 21 20 41 29 98 45 220 157 286 263 34 54 81 180 90
241 4 24 7 45 8 46 1 0 19 4 40 7 154 24 229 203 139 331 -31 45 -89 81 -143
90 l-36 6 2 80 c2 79 3 80 43 121 23 22 52 64 65 92 32 69 60 187 55 233 -9
76 -58 141 -131 173 -44 20 -64 20 -554 20 -479 -1 -511 -2 -566 -21z"/>
<path d="M161 412 c-20 -37 3 -42 205 -42 158 0 194 3 204 15 10 12 10 18 0
30 -10 12 -46 15 -206 15 -178 0 -194 -1 -203 -18z"/>
<path d="M726 414 c-18 -46 -95 -44 1833 -44 999 0 1822 4 1830 9 8 5 11 16 6
30 l-6 21 -1829 0 c-1679 0 -1828 -1 -1834 -16z"/>
<path d="M4550 415 c-10 -12 -10 -18 0 -30 11 -13 43 -15 209 -13 l196 3 0 25
0 25 -196 3 c-166 2 -198 0 -209 -13z"/>
</g>
</svg>
